<?xml version="1.0" encoding="UTF-8"?>
<!DOCTYPE svg PUBLIC "-//W3C//DTD SVG 1.1//EN" "http://www.w3.org/Graphics/SVG/1.1/DTD/svg11.dtd">
<svg xmlns="http://www.w3.org/2000/svg" version="1.1" width="512px" height="512px" style="shape-rendering:geometricPrecision; text-rendering:geometricPrecision; image-rendering:optimizeQuality; fill-rule:evenodd; clip-rule:evenodd" xmlns:xlink="http://www.w3.org/1999/xlink">
<g><path style="opacity:0.987" fill="#000000" d="M 69.5,-0.5 C 70.5,-0.5 71.5,-0.5 72.5,-0.5C 133.146,60.8123 194.146,121.812 255.5,182.5C 316.854,121.812 377.854,60.8123 438.5,-0.5C 439.5,-0.5 440.5,-0.5 441.5,-0.5C 464.5,23.1667 487.833,46.5 511.5,69.5C 511.5,70.5 511.5,71.5 511.5,72.5C 450.188,133.146 389.188,194.146 328.5,255.5C 389.188,316.854 450.188,377.854 511.5,438.5C 511.5,439.5 511.5,440.5 511.5,441.5C 487.833,464.5 464.5,487.833 441.5,511.5C 440.5,511.5 439.5,511.5 438.5,511.5C 377.854,450.188 316.854,389.188 255.5,328.5C 194.146,389.188 133.146,450.188 72.5,511.5C 71.5,511.5 70.5,511.5 69.5,511.5C 46.5,487.833 23.1667,464.5 -0.5,441.5C -0.5,440.5 -0.5,439.5 -0.5,438.5C 60.8123,377.854 121.812,316.854 182.5,255.5C 121.812,194.146 60.8123,133.146 -0.5,72.5C -0.5,71.5 -0.5,70.5 -0.5,69.5C 23.1667,46.5 46.5,23.1667 69.5,-0.5 Z"/></g>
</svg>
