<?xml version="1.0" encoding="UTF-8"?>
<!DOCTYPE svg PUBLIC "-//W3C//DTD SVG 1.1//EN" "http://www.w3.org/Graphics/SVG/1.1/DTD/svg11.dtd">
<svg xmlns="http://www.w3.org/2000/svg" version="1.1" width="512px" height="512px" style="shape-rendering:geometricPrecision; text-rendering:geometricPrecision; image-rendering:optimizeQuality; fill-rule:evenodd; clip-rule:evenodd" xmlns:xlink="http://www.w3.org/1999/xlink">
<g><path style="opacity:0.99" fill="#000000" d="M 511.5,77.5 C 511.5,82.1667 511.5,86.8333 511.5,91.5C 500.969,113.545 488.136,134.212 473,153.5C 447.006,185.168 419.173,215.335 389.5,244C 368.531,263.302 347.864,282.968 327.5,303C 364.136,339.63 399.302,377.463 433,416.5C 443.137,437.622 438.47,454.622 419,467.5C 412.105,479.701 401.605,485.868 387.5,486C 378.25,492.875 368.25,494.542 357.5,491C 328.648,476.132 301.981,458.132 277.5,437C 264,424.167 250.5,411.333 237,398.5C 212.061,424.792 184.228,447.292 153.5,466C 141.256,472.955 128.256,477.955 114.5,481C 106.994,482.348 99.9941,481.014 93.5,477C 79.2789,466.779 67.1122,454.612 57,440.5C 47.8659,423.162 48.5325,406.162 59,389.5C 69.6863,374.806 81.853,361.306 95.5,349C 111.875,335.471 127.875,321.471 143.5,307C 109.373,276.54 76.2062,245.04 44,212.5C 26.5528,193.24 11.7195,172.24 -0.5,149.5C -0.5,144.5 -0.5,139.5 -0.5,134.5C 8.61981,116.548 22.2865,103.048 40.5,94C 55.6662,74.1531 73.6662,71.1531 94.5,85C 143.301,129.466 191.801,174.299 240,219.5C 272.276,189.225 303.943,158.225 335,126.5C 367.5,92 400,57.5 432.5,23C 447.576,16.0056 461.909,17.3389 475.5,27C 485.093,35.0484 494.593,43.215 504,51.5C 507.802,57.2126 509.302,63.3792 508.5,70C 509.233,72.7196 510.233,75.2196 511.5,77.5 Z"/></g>
</svg>
