<svg xmlns="http://www.w3.org/2000/svg" version="1.1" width="80px" height="80px" style="shape-rendering:geometricPrecision; text-rendering:geometricPrecision; image-rendering:optimizeQuality; fill-rule:evenodd; clip-rule:evenodd" xmlns:xlink="http://www.w3.org/1999/xlink">
<g><path style="opacity:0.993" fill="#fe6464" d="M 112.5,-0.5 C 116.833,-0.5 121.167,-0.5 125.5,-0.5C 127.741,0.620727 130.075,1.78739 132.5,3C 173.347,44.0137 214.347,84.8471 255.5,125.5C 296.653,84.8471 337.653,44.0137 378.5,3C 380.925,1.78739 383.259,0.620727 385.5,-0.5C 389.833,-0.5 394.167,-0.5 398.5,-0.5C 402.4,1.1227 406.067,3.28937 409.5,6C 441.333,37.8333 473.167,69.6667 505,101.5C 507.711,104.933 509.877,108.6 511.5,112.5C 511.5,116.833 511.5,121.167 511.5,125.5C 510.379,127.741 509.213,130.075 508,132.5C 466.986,173.347 426.153,214.347 385.5,255.5C 426.153,296.653 466.986,337.653 508,378.5C 509.213,380.925 510.379,383.259 511.5,385.5C 511.5,389.833 511.5,394.167 511.5,398.5C 509.877,402.4 507.711,406.067 505,409.5C 473.167,441.333 441.333,473.167 409.5,505C 406.067,507.711 402.4,509.877 398.5,511.5C 394.167,511.5 389.833,511.5 385.5,511.5C 383.259,510.379 380.925,509.213 378.5,508C 337.653,466.986 296.653,426.153 255.5,385.5C 214.347,426.153 173.347,466.986 132.5,508C 130.075,509.213 127.741,510.379 125.5,511.5C 121.167,511.5 116.833,511.5 112.5,511.5C 108.6,509.877 104.933,507.711 101.5,505C 69.6667,473.167 37.8333,441.333 6,409.5C 3.28937,406.067 1.1227,402.4 -0.5,398.5C -0.5,394.167 -0.5,389.833 -0.5,385.5C 0.620727,383.259 1.78739,380.925 3,378.5C 44.0137,337.653 84.8471,296.653 125.5,255.5C 84.8471,214.347 44.0137,173.347 3,132.5C 1.78739,130.075 0.620727,127.741 -0.5,125.5C -0.5,121.167 -0.5,116.833 -0.5,112.5C 1.1227,108.6 3.28937,104.933 6,101.5C 37.8333,69.6667 69.6667,37.8333 101.5,6C 104.933,3.28937 108.6,1.1227 112.5,-0.5 Z"/></g>
</svg>
